<svg width="16" height="21" viewBox="0 0 16 21" fill="none" xmlns="http://www.w3.org/2000/svg">
<path d="M15.5 13V3C15.5 2.33696 15.2366 1.70107 14.7678 1.23223C14.2989 0.763392 13.663 0.5 13 0.5L9.66667 0.5V1.33333C9.66667 1.77536 9.49107 2.19928 9.17851 2.51184C8.86595 2.82441 8.44203 3 8 3C7.55797 3 7.13405 2.82441 6.82149 2.51184C6.50893 2.19928 6.33333 1.77536 6.33333 1.33333V0.5H3C2.33696 0.5 1.70107 0.763392 1.23223 1.23223C0.763392 1.70107 0.5 2.33696 0.5 3V13H3.83333V14.6667H0.5V20.5H6.33333V19.6667C6.33333 19.2246 6.50893 18.8007 6.82149 18.4882C7.13405 18.1756 7.55797 18 8 18C8.44203 18 8.86595 18.1756 9.17851 18.4882C9.49107 18.8007 9.66667 19.2246 9.66667 19.6667V20.5H15.5V14.6667H12.1667V13H15.5ZM9.66667 14.6667H6.33333V13H9.66667V14.6667Z" fill="#4C5E36"/>
</svg>
