<svg width="20" height="19" viewBox="0 0 20 19" fill="none" xmlns="http://www.w3.org/2000/svg">
<path d="M20 6.16693V16.1669H18.3333V7.24193L11.7667 11.4769C11.2408 11.8185 10.6271 12.0003 10 12.0003C9.3729 12.0003 8.75924 11.8185 8.23333 11.4769L0 6.16693L8.23333 0.856093C8.75954 0.515306 9.37308 0.333984 10 0.333984C10.6269 0.333984 11.2405 0.515306 11.7667 0.856093L20 6.16693ZM10 13.6669C9.05365 13.6663 8.12763 13.3922 7.33333 12.8778L3.33333 10.3003V16.5119L3.5775 16.7561C3.65583 16.8336 5.53917 18.6669 10 18.6669C14.4608 18.6669 16.3442 16.8336 16.4225 16.7561L16.6667 16.5119V10.3003L12.6667 12.8778C11.8724 13.3922 10.9464 13.6663 10 13.6669Z" fill="black"/>
</svg>
