<svg width="20" height="15" viewBox="0 0 20 15" fill="none" xmlns="http://www.w3.org/2000/svg">
<path d="M17.5 0H2.5C1.83696 0 1.20107 0.263392 0.732233 0.732233C0.263392 1.20107 0 1.83696 0 2.5V4.16667H20V2.5C20 1.83696 19.7366 1.20107 19.2678 0.732233C18.7989 0.263392 18.163 0 17.5 0Z" fill="black"/>
<path d="M0 15H20V5.83333H0V15ZM5.83333 10.4167C5.83333 10.6639 5.76002 10.9056 5.62267 11.1111C5.48532 11.3167 5.2901 11.4769 5.06169 11.5715C4.83328 11.6661 4.58195 11.6909 4.33947 11.6426C4.09699 11.5944 3.87427 11.4754 3.69945 11.3005C3.52463 11.1257 3.40558 10.903 3.35735 10.6605C3.30912 10.4181 3.33387 10.1667 3.42848 9.93831C3.52309 9.7099 3.68331 9.51468 3.88887 9.37733C4.09443 9.23998 4.33611 9.16667 4.58333 9.16667C4.91485 9.16667 5.2328 9.29836 5.46722 9.53278C5.70164 9.7672 5.83333 10.0851 5.83333 10.4167Z" fill="black"/>
</svg>
