<svg width="18" height="21" viewBox="0 0 18 21" fill="none" xmlns="http://www.w3.org/2000/svg">
<path d="M14.5075 1.17675C14.2991 0.89446 14.0069 0.68515 13.6725 0.57864C13.3382 0.47213 12.9788 0.473853 12.6455 0.583565C12.3122 0.693277 12.0221 0.905379 11.8164 1.18965C11.6107 1.47392 11.4999 1.81586 11.5 2.16675V20.5001H13.1666V16.8884C17.1666 12.5117 19.3333 7.29675 14.5075 1.17675ZM8.99996 0.500079V8.00008C8.99996 8.66312 8.73657 9.29901 8.26773 9.76785C7.79889 10.2367 7.163 10.5001 6.49996 10.5001H5.66663V20.5001H3.99996V10.5001H3.16663C2.50358 10.5001 1.8677 10.2367 1.39886 9.76785C0.930018 9.29901 0.666626 8.66312 0.666626 8.00008V0.500079H2.33329V8.00008C2.33329 8.22109 2.42109 8.43305 2.57737 8.58933C2.73365 8.74562 2.94561 8.83341 3.16663 8.83341H3.99996V0.500079H5.66663V8.83341H6.49996C6.72097 8.83341 6.93293 8.74562 7.08921 8.58933C7.24549 8.43305 7.33329 8.22109 7.33329 8.00008V0.500079H8.99996Z" fill="black"/>
</svg>
