<svg width="20" height="21" viewBox="0 0 20 21" fill="none" xmlns="http://www.w3.org/2000/svg">
<path d="M15 3V3.83333H20V5.5H15V7.16667H20V8.83333H15V10.5H20V12.1667H15V13.8333H20V15.5H15V20.5H13.3333V3C13.3333 2.33696 13.5967 1.70107 14.0656 1.23223C14.5344 0.763392 15.1703 0.5 15.8333 0.5L20 0.5V2.16667H15.8333C15.6123 2.16667 15.4004 2.25446 15.2441 2.41074C15.0878 2.56702 15 2.77899 15 3ZM11.6667 17.1667C11.6697 17.8453 11.4646 18.5086 11.079 19.0671C10.6934 19.6256 10.1459 20.0525 9.51026 20.2902C8.87459 20.528 8.18132 20.5651 7.52388 20.3967C6.86644 20.2283 6.27642 19.8624 5.83335 19.3483C5.48402 19.7502 5.04328 20.0622 4.54822 20.2582C4.05315 20.4542 3.51826 20.5284 2.98854 20.4745C2.45883 20.4207 1.9498 20.2404 1.50429 19.9488C1.05878 19.6572 0.689825 19.2629 0.42848 18.799C0.167135 18.3351 0.0210448 17.8153 0.00250447 17.2831C-0.0160359 16.751 0.0935161 16.2222 0.321941 15.7413C0.550365 15.2603 0.890978 14.8413 1.31511 14.5194C1.73925 14.1975 2.2345 13.9822 2.75918 13.8917L4.92668 8.83333L3.55252 5.62583C2.85627 4.00673 2.49811 2.26246 2.50002 0.5L4.16668 0.5C4.16455 2.03689 4.47649 3.558 5.08335 4.97L5.83335 6.72L6.58335 4.97C7.19021 3.558 7.50214 2.03689 7.50002 0.5H9.16668C9.16858 2.26246 8.81043 4.00673 8.11418 5.62583L6.74002 8.83333L8.90668 13.8917C9.67816 14.0264 10.3776 14.4284 10.8823 15.0272C11.3869 15.6261 11.6646 16.3835 11.6667 17.1667ZM5.00002 17.1667C5.00002 16.837 4.90227 16.5148 4.71913 16.2407C4.536 15.9666 4.2757 15.753 3.97115 15.6269C3.66661 15.5007 3.3315 15.4677 3.0082 15.532C2.6849 15.5963 2.38792 15.7551 2.15484 15.9882C1.92175 16.2212 1.76302 16.5182 1.69871 16.8415C1.6344 17.1648 1.6674 17.4999 1.79355 17.8045C1.9197 18.109 2.13332 18.3693 2.4074 18.5525C2.68148 18.7356 3.00371 18.8333 3.33335 18.8333C3.77538 18.8333 4.1993 18.6577 4.51186 18.3452C4.82442 18.0326 5.00002 17.6087 5.00002 17.1667ZM5.83335 14.985C6.19388 14.5695 6.65208 14.2502 7.16668 14.0558L5.83335 10.9483L4.50002 14.0558C5.01462 14.2502 5.47281 14.5695 5.83335 14.985ZM10 17.1667C10 16.837 9.90227 16.5148 9.71913 16.2407C9.536 15.9666 9.2757 15.753 8.97115 15.6269C8.66661 15.5007 8.3315 15.4677 8.0082 15.532C7.6849 15.5963 7.38793 15.7551 7.15484 15.9882C6.92175 16.2212 6.76301 16.5182 6.69871 16.8415C6.6344 17.1648 6.6674 17.4999 6.79355 17.8045C6.9197 18.109 7.13332 18.3693 7.4074 18.5525C7.68148 18.7356 8.00371 18.8333 8.33335 18.8333C8.77538 18.8333 9.1993 18.6577 9.51186 18.3452C9.82442 18.0326 10 17.6087 10 17.1667Z" fill="black"/>
</svg>
