<svg width="20" height="21" viewBox="0 0 20 21" fill="none" xmlns="http://www.w3.org/2000/svg">
<path d="M19.2675 6.43488L17.2558 4.42238L18.9225 2.75572L17.7441 1.57738L16.0775 3.24405L14.0658 1.23238C13.8336 1.00019 13.558 0.816005 13.2547 0.690342C12.9513 0.564678 12.6262 0.5 12.2979 0.5C11.9695 0.5 11.6444 0.564678 11.3411 0.690342C11.0377 0.816005 10.7621 1.00019 10.53 1.23238L8.17329 3.58905L11.9525 7.36905L6.86912 12.4524L3.08912 8.67322L0.732454 11.0299C0.263777 11.4987 0.000488281 12.1345 0.000488281 12.7974C0.000488281 13.4603 0.263777 14.0961 0.732454 14.5649L2.74412 16.5774L1.07745 18.244L2.25579 19.4224L3.92245 17.7557L5.93412 19.7674C6.16627 19.9996 6.44189 20.1838 6.74523 20.3094C7.04857 20.4351 7.3737 20.4998 7.70204 20.4998C8.03038 20.4998 8.3555 20.4351 8.65884 20.3094C8.96219 20.1838 9.2378 19.9996 9.46995 19.7674L11.8266 17.4107L8.04745 13.6307L13.1308 8.54738L16.91 12.3265L19.2666 9.96988C19.7353 9.50106 19.9986 8.86529 19.9986 8.20238C19.9986 7.53947 19.7361 6.9037 19.2675 6.43488Z" fill="black"/>
</svg>
