<svg width="20" height="21" viewBox="0 0 20 21" fill="none" xmlns="http://www.w3.org/2000/svg">
<path d="M17.4509 7.16667C17.035 3.4225 13.8542 0.5 10 0.5C6.14588 0.5 2.96504 3.4225 2.54921 7.16667H-0.0174561L1.58088 18.3542C1.75588 19.5775 2.81921 20.5 4.05588 20.5H15.9442C17.18 20.5 18.2442 19.5775 18.4192 18.3542L20.0175 7.16667H17.4509ZM10 2.16667C12.9325 2.16667 15.36 4.345 15.7667 7.16667H4.23338C4.64004 4.345 7.06754 2.16667 10 2.16667ZM6.66671 17.1667H5.00004V10.5H6.66671V17.1667ZM10.8334 17.1667H9.16671V10.5H10.8334V17.1667ZM15 17.1667H13.3334V10.5H15V17.1667Z" fill="black"/>
</svg>
