<svg width="18" height="18" viewBox="0 0 18 18" fill="none" xmlns="http://www.w3.org/2000/svg">
<path d="M15.75 2.25H2.25C1.65326 2.25 1.08097 2.48705 0.65901 2.90901C0.237053 3.33097 0 3.90326 0 4.5V6H18V4.5C18 3.90326 17.7629 3.33097 17.341 2.90901C16.919 2.48705 16.3467 2.25 15.75 2.25Z" fill="white"/>
<path d="M0 15.75H18V7.5H0V15.75ZM5.25 11.625C5.25 11.8475 5.18402 12.065 5.0604 12.25C4.93679 12.435 4.76109 12.5792 4.55552 12.6644C4.34995 12.7495 4.12375 12.7718 3.90552 12.7284C3.68729 12.685 3.48684 12.5778 3.3295 12.4205C3.17217 12.2632 3.06502 12.0627 3.02162 11.8445C2.97821 11.6262 3.00049 11.4 3.08564 11.1945C3.17078 10.9889 3.31498 10.8132 3.49998 10.6896C3.68499 10.566 3.9025 10.5 4.125 10.5C4.42337 10.5 4.70952 10.6185 4.9205 10.8295C5.13147 11.0405 5.25 11.3266 5.25 11.625Z" fill="white"/>
</svg>
