<svg width="18" height="18" viewBox="0 0 18 18" fill="none" xmlns="http://www.w3.org/2000/svg">
<g clip-path="url(#clip0_599_115)">
<path d="M13.9567 0.609071C13.7692 0.355014 13.5062 0.166635 13.2053 0.0707757C12.9044 -0.0250833 12.581 -0.0235321 12.281 0.0752085C11.981 0.173949 11.7199 0.364841 11.5348 0.620686C11.3496 0.876531 11.25 1.18428 11.25 1.50007V18.0001H12.75V14.7496C16.35 10.8106 18.3 6.11707 13.9567 0.609071ZM9 7.10268e-05V6.75007C9 7.34681 8.76295 7.9191 8.34099 8.34106C7.91903 8.76302 7.34674 9.00007 6.75 9.00007H6V18.0001H4.5V9.00007H3.75C3.15326 9.00007 2.58097 8.76302 2.15901 8.34106C1.73705 7.9191 1.5 7.34681 1.5 6.75007V7.10268e-05H3V6.75007C3 6.94898 3.07902 7.13975 3.21967 7.2804C3.36032 7.42105 3.55109 7.50007 3.75 7.50007H4.5V7.10268e-05H6V7.50007H6.75C6.94891 7.50007 7.13968 7.42105 7.28033 7.2804C7.42098 7.13975 7.5 6.94898 7.5 6.75007V7.10268e-05H9Z" fill="white"/>
</g>
<defs>
<clipPath id="clip0_599_115">
<rect width="18" height="18" fill="white"/>
</clipPath>
</defs>
</svg>
