<svg width="18" height="18" viewBox="0 0 18 18" fill="none" xmlns="http://www.w3.org/2000/svg">
<g clip-path="url(#clip0_599_119)">
<path d="M13.4999 2.25V3H17.9999V4.5H13.4999V6H17.9999V7.5H13.4999V9H17.9999V10.5H13.4999V12H17.9999V13.5H13.4999V18H11.9999V2.25C11.9999 1.65326 12.237 1.08097 12.659 0.65901C13.0809 0.237053 13.6532 0 14.2499 0L17.9999 0V1.5H14.2499C14.051 1.5 13.8603 1.57902 13.7196 1.71967C13.579 1.86032 13.4999 2.05109 13.4999 2.25ZM10.4999 15C10.5026 15.6108 10.3181 16.2077 9.97104 16.7104C9.62402 17.2131 9.13126 17.5972 8.55916 17.8112C7.98706 18.0252 7.36312 18.0586 6.77142 17.9071C6.17972 17.7555 5.64871 17.4262 5.24994 16.9635C4.93554 17.3251 4.53888 17.606 4.09332 17.7824C3.64777 17.9587 3.16636 18.0255 2.68962 17.9771C2.21287 17.9286 1.75475 17.7664 1.35379 17.5039C0.952827 17.2415 0.62077 16.8866 0.385559 16.4691C0.150348 16.0516 0.0188671 15.5837 0.00218078 15.1048C-0.0145055 14.6259 0.0840912 14.15 0.289673 13.7171C0.495255 13.2843 0.801807 12.9071 1.18353 12.6175C1.56525 12.3278 2.01098 12.134 2.48319 12.0525L4.43394 7.5L3.19719 4.61325C2.57057 3.15606 2.24823 1.58621 2.24994 0L3.74994 0C3.74802 1.3832 4.02877 2.7522 4.57494 4.023L5.24994 5.598L5.92494 4.023C6.47111 2.7522 6.75186 1.3832 6.74994 0H8.24994C8.25165 1.58621 7.92931 3.15606 7.30269 4.61325L6.06594 7.5L8.01594 12.0525C8.71027 12.1737 9.33975 12.5356 9.79396 13.0745C10.2482 13.6135 10.4981 14.2952 10.4999 15ZM4.49994 15C4.49994 14.7033 4.41197 14.4133 4.24714 14.1666C4.08232 13.92 3.84806 13.7277 3.57397 13.6142C3.29988 13.5007 2.99828 13.4709 2.70731 13.5288C2.41633 13.5867 2.14906 13.7296 1.93928 13.9393C1.7295 14.1491 1.58664 14.4164 1.52876 14.7074C1.47089 14.9983 1.50059 15.2999 1.61412 15.574C1.72765 15.8481 1.91991 16.0824 2.16659 16.2472C2.41326 16.412 2.70327 16.5 2.99994 16.5C3.39777 16.5 3.7793 16.342 4.0606 16.0607C4.34191 15.7794 4.49994 15.3978 4.49994 15ZM5.24994 13.0365C5.57442 12.6626 5.9868 12.3752 6.44994 12.2003L5.24994 9.4035L4.04994 12.2003C4.51309 12.3752 4.92546 12.6626 5.24994 13.0365ZM8.99994 15C8.99994 14.7033 8.91197 14.4133 8.74714 14.1666C8.58232 13.92 8.34805 13.7277 8.07397 13.6142C7.79988 13.5007 7.49828 13.4709 7.2073 13.5288C6.91633 13.5867 6.64906 13.7296 6.43928 13.9393C6.2295 14.1491 6.08664 14.4164 6.02876 14.7074C5.97088 14.9983 6.00059 15.2999 6.11412 15.574C6.22765 15.8481 6.41991 16.0824 6.66659 16.2472C6.91326 16.412 7.20327 16.5 7.49994 16.5C7.89777 16.5 8.2793 16.342 8.5606 16.0607C8.8419 15.7794 8.99994 15.3978 8.99994 15Z" fill="white"/>
</g>
<defs>
<clipPath id="clip0_599_119">
<rect width="18" height="18" fill="white"/>
</clipPath>
</defs>
</svg>
