<svg width="18" height="18" viewBox="0 0 18 18" fill="none" xmlns="http://www.w3.org/2000/svg">
<path d="M17.3408 5.34139L15.5303 3.53014L17.0303 2.03014L15.9698 0.969644L14.4698 2.46964L12.6593 0.659145C12.4503 0.450172 12.2023 0.284404 11.9293 0.171308C11.6563 0.0582106 11.3636 0 11.0681 0C10.7726 0 10.48 0.0582106 10.207 0.171308C9.934 0.284404 9.68594 0.450172 9.47701 0.659145L7.35601 2.78014L10.7573 6.18214L6.18226 10.7571L2.78026 7.35589L0.659258 9.47689C0.237448 9.89883 0.000488281 10.471 0.000488281 11.0676C0.000488281 11.6643 0.237448 12.2365 0.659258 12.6584L2.46976 14.4696L0.969758 15.9696L2.03026 17.0301L3.53026 15.5301L5.34076 17.3406C5.54969 17.5496 5.79775 17.7154 6.07076 17.8285C6.34377 17.9416 6.63638 17.9998 6.93188 17.9998C7.22739 17.9998 7.52 17.9416 7.79301 17.8285C8.06602 17.7154 8.31407 17.5496 8.52301 17.3406L10.644 15.2196L7.24276 11.8176L11.8178 7.24264L15.219 10.6439L17.34 8.52289C17.7618 8.10096 17.9988 7.52876 17.9988 6.93214C17.9988 6.33553 17.7626 5.76333 17.3408 5.34139Z" fill="white"/>
</svg>
